<mxfile host="65bd71144e">
    <diagram id="ALHuOSqfJnOu3Q9H4BjV" name="Page-1">
        <mxGraphModel dx="1131" dy="722" grid="1" gridSize="10" guides="1" tooltips="1" connect="1" arrows="1" fold="1" page="1" pageScale="1" pageWidth="827" pageHeight="1169" math="0" shadow="0">
            <root>
                <mxCell id="0"/>
                <mxCell id="1" parent="0"/>
                <mxCell id="2" value="Thread 1" style="rounded=0;whiteSpace=wrap;html=1;fontFamily=Inter;fontSource=https%3A%2F%2Ffonts.googleapis.com%2Fcss%3Ffamily%3DInter;" vertex="1" parent="1">
                    <mxGeometry x="200" y="120" width="80" height="20" as="geometry"/>
                </mxCell>
                <mxCell id="3" value="Thread 2" style="rounded=0;whiteSpace=wrap;html=1;fontFamily=Inter;fontSource=https%3A%2F%2Ffonts.googleapis.com%2Fcss%3Ffamily%3DInter;" vertex="1" parent="1">
                    <mxGeometry x="280" y="140" width="80" height="20" as="geometry"/>
                </mxCell>
                <mxCell id="4" value="Thread 3" style="rounded=0;whiteSpace=wrap;html=1;fontFamily=Inter;fontSource=https%3A%2F%2Ffonts.googleapis.com%2Fcss%3Ffamily%3DInter;" vertex="1" parent="1">
                    <mxGeometry x="360" y="160" width="80" height="20" as="geometry"/>
                </mxCell>
                <mxCell id="5" value="Thread 1" style="rounded=0;whiteSpace=wrap;html=1;fontFamily=Inter;fontSource=https%3A%2F%2Ffonts.googleapis.com%2Fcss%3Ffamily%3DInter;fillColor=#f5f5f5;fontColor=#333333;strokeColor=#666666;opacity=80;" vertex="1" parent="1">
                    <mxGeometry x="440" y="120" width="80" height="20" as="geometry"/>
                </mxCell>
                <mxCell id="6" value="Thread 3" style="rounded=0;whiteSpace=wrap;html=1;fontFamily=Inter;fontSource=https%3A%2F%2Ffonts.googleapis.com%2Fcss%3Ffamily%3DInter;fillColor=#f5f5f5;fontColor=#333333;strokeColor=#666666;opacity=80;" vertex="1" parent="1">
                    <mxGeometry x="120" y="160" width="80" height="20" as="geometry"/>
                </mxCell>
            </root>
        </mxGraphModel>
    </diagram>
</mxfile>